<?xml version="1.0" standalone="no"?>
<!DOCTYPE svg PUBLIC "-//W3C//DTD SVG 20010904//EN"
 "http://www.w3.org/TR/2001/REC-SVG-20010904/DTD/svg10.dtd">
<svg version="1.0" xmlns="http://www.w3.org/2000/svg"
 width="196.000000pt" height="196.000000pt" viewBox="0 0 196.000000 196.000000"
 preserveAspectRatio="xMidYMid meet">
<metadata>
Created by potrace 1.10, written by Peter Selinger 2001-2011
</metadata>
<g transform="translate(0.000000,196.000000) scale(0.100000,-0.100000)"
fill="#000000" stroke="none">
<path d="M560 1696 l-405 -233 0 -483 0 -483 413 -239 413 -239 412 239 412
238 0 484 0 484 -404 233 c-223 128 -412 233 -420 233 -9 0 -198 -105 -421
-234z m488 164 c23 -17 42 -31 42 -33 0 -2 -15 -1 -34 1 -59 7 -66 -16 -66
-203 l0 -160 28 -32 c15 -18 33 -33 40 -33 7 0 12 -4 12 -10 0 -13 -2 -13 -36
5 -16 8 -40 15 -52 15 -23 0 -92 -27 -102 -41 -6 -7 -60 -37 -102 -56 -16 -7
-28 -8 -28 -3 0 6 4 10 9 10 16 0 155 82 184 108 l27 26 0 170 c-1 173 -5 196
-40 208 -8 3 -32 -3 -53 -14 -58 -29 -56 -14 2 18 28 15 51 31 51 35 0 8 24
16 56 18 12 0 40 -13 62 -29z m-115 -401 c-9 -9 -321 -189 -339 -196 -7 -2
-81 35 -165 83 -111 64 -149 90 -138 96 8 5 156 91 329 191 l315 182 3 -174
c1 -96 -1 -178 -5 -182z m460 144 c158 -91 284 -170 280 -174 -12 -11 -289
-169 -297 -169 -4 0 -85 45 -181 101 l-175 101 0 180 0 179 43 -26 c23 -14
172 -100 330 -192z m-210 181 c9 -4 17 -10 17 -15 0 -5 7 -9 15 -9 8 0 15 -5
15 -11 0 -7 -11 -4 -27 6 -46 29 -69 47 -53 41 8 -3 23 -9 33 -12z m242 -145
c28 -15 67 -36 88 -46 20 -10 37 -21 37 -25 0 -5 7 -8 15 -8 8 0 15 -5 15 -10
0 -10 -58 15 -70 29 -3 3 -21 14 -40 25 -121 63 -150 81 -150 89 0 5 12 1 28
-9 15 -10 50 -30 77 -45z m-855 11 c0 -5 -5 -10 -10 -10 -6 0 -28 -12 -50 -26
-21 -14 -45 -24 -52 -21 -9 4 -7 6 4 6 9 1 18 4 20 9 2 6 77 51 86 52 1 0 2
-4 2 -10z m-205 -126 c-29 -11 -76 -46 -90 -68 -16 -23 -15 -27 2 -50 19 -26
111 -86 131 -86 7 0 12 -5 12 -10 0 -6 -36 8 -80 30 -44 22 -86 40 -94 40 -8
0 -24 -12 -35 -26 l-20 -25 -7 35 c-12 65 -2 78 93 128 48 25 90 44 93 41 3
-3 1 -7 -5 -9z m1300 -20 c123 -64 115 -43 113 -298 l-3 -221 -2 178 c-2 106
-7 177 -13 177 -6 0 -10 7 -10 15 0 27 -49 29 -93 5 l-42 -23 43 41 c23 23 42
48 42 56 0 18 -22 41 -72 72 -32 21 -46 34 -35 34 1 0 34 -16 72 -36z m-502
-224 c70 -40 126 -74 125 -75 -2 -1 -71 -41 -155 -89 l-152 -87 -155 89 -156
89 158 90 c155 89 157 90 182 73 14 -9 83 -49 153 -90z m12 50 c33 -18 88 -48
122 -67 51 -28 68 -33 97 -27 40 7 46 -4 17 -30 -10 -9 -21 -35 -25 -56 -3
-22 -11 -40 -16 -40 -6 0 -10 4 -10 10 0 5 -11 17 -24 25 -23 15 -27 15 -65
-5 -23 -11 -41 -17 -41 -12 0 5 11 14 24 20 14 6 32 22 41 36 16 24 16 27 -5
53 -12 15 -60 49 -108 75 -48 26 -89 53 -91 60 -3 10 -1 10 10 2 8 -7 41 -26
74 -44z m-779 -62 l149 -86 -5 -206 -5 -206 -140 -81 c-77 -45 -146 -83 -152
-86 -10 -4 -13 75 -13 377 0 210 4 380 8 378 5 -1 75 -42 158 -90z m1334 -289
c0 -209 -3 -379 -8 -377 -4 2 -74 41 -155 88 l-147 84 0 206 0 205 148 86 c81
48 150 87 155 88 4 1 7 -170 7 -380z m-1010 301 c-67 -53 -78 -86 -37 -115 53
-38 99 -65 107 -65 6 0 10 -3 10 -8 0 -4 17 -15 38 -25 20 -10 55 -29 77 -42
53 -31 71 -30 139 3 69 36 73 26 6 -16 -28 -17 -55 -42 -61 -55 l-11 -24 -42
42 c-23 23 -56 48 -74 56 -18 8 -32 17 -32 21 0 5 -5 8 -11 8 -6 0 -29 13 -52
28 -87 58 -152 77 -163 47 -7 -17 -33 -21 -35 -5 -1 6 -3 15 -4 20 -1 6 -3 16
-4 23 0 7 -10 23 -20 34 -24 25 -18 34 19 26 27 -5 133 37 146 58 3 5 11 9 17
9 7 -1 1 -9 -13 -20z m760 -20 c-26 -20 -40 -25 -40 -14 0 11 34 33 50 33 10
1 6 -6 -10 -19z m-711 -209 c75 -44 144 -83 154 -86 15 -6 17 -25 17 -186 0
-98 -2 -179 -5 -179 -3 0 -73 39 -155 87 l-149 87 -3 178 c-2 98 -1 178 1 178
2 0 65 -36 140 -79z m564 -98 l-3 -178 -142 -83 c-79 -46 -149 -86 -155 -89
-10 -4 -13 34 -13 173 l1 179 152 87 c83 48 154 88 157 88 3 0 4 -80 3 -177z
m447 -203 l0 -220 -42 -30 c-50 -37 -82 -41 -50 -7 17 18 19 26 10 42 -15 25
-70 75 -79 69 -3 -2 -15 6 -25 18 -15 17 -7 14 42 -12 70 -37 104 -36 122 5 8
17 12 86 12 190 0 91 2 165 5 165 3 0 5 -99 5 -220z m-793 -43 c-2 -23 -3 -1
-3 48 0 50 1 68 3 42 2 -26 2 -67 0 -90z m403 81 c0 -18 51 -79 61 -73 5 4 9
1 9 -4 0 -14 -1 -14 -45 4 -22 10 -45 13 -58 8 -12 -4 -25 -6 -29 -5 -5 1 -8
-2 -8 -7 0 -5 -17 -16 -37 -25 -40 -17 -72 -34 -138 -76 -52 -33 -76 -47 -101
-60 -11 -7 -28 -25 -38 -41 -20 -34 -32 -37 -41 -9 -4 12 -25 33 -48 48 l-40
27 36 6 c44 7 41 5 60 49 11 25 16 29 16 15 1 -33 30 -65 57 -65 21 0 59 15
74 30 5 5 17 12 131 77 74 41 136 102 121 118 -4 5 -1 5 6 1 6 -4 12 -12 12
-18z m-705 -88 c8 0 15 -4 15 -10 0 -13 1 -14 -59 15 -58 28 -67 27 -144 -13
-26 -13 -50 -23 -52 -20 -3 2 13 12 35 22 22 10 55 35 72 56 l32 38 43 -44
c23 -24 49 -44 58 -44z m83 -104 l172 -99 0 -179 0 -180 -22 14 c-13 8 -162
95 -331 193 -169 98 -306 179 -304 182 15 14 294 171 302 170 6 -1 88 -46 183
-101z m766 15 l155 -88 -277 -158 c-152 -87 -301 -173 -330 -192 -29 -18 -55
-33 -57 -33 -3 0 -5 80 -5 178 l0 179 143 81 c78 45 156 90 172 101 17 11 33
20 37 20 4 1 77 -39 162 -88z m-777 48 c21 -11 45 -28 53 -36 14 -15 -75 31
-94 49 -17 14 2 9 41 -13z m793 1 c14 -11 21 -20 17 -20 -11 0 -67 29 -67 35
0 11 27 3 50 -15z m-1290 -80 c16 0 32 5 35 10 3 6 10 10 15 10 5 0 -4 -15
-21 -32 -34 -38 -36 -51 -8 -77 35 -33 5 -32 -47 2 -51 34 -63 60 -49 114 l6
25 20 -26 c14 -17 30 -26 49 -26z m729 -310 c1 -118 12 -147 59 -152 26 -3 25
-4 -20 -31 l-48 -29 -47 28 -48 28 30 8 c50 13 55 28 56 192 1 110 4 139 10
106 4 -25 8 -92 8 -150z m-237 -66 c35 -18 59 -34 54 -34 -16 0 -146 73 -146
82 0 6 6 5 15 -2 8 -6 42 -27 77 -46z"/>
</g>
</svg>
