<?xml version="1.0" standalone="no"?>
<!DOCTYPE svg PUBLIC "-//W3C//DTD SVG 20010904//EN" "http://www.w3.org/TR/2001/REC-SVG-20010904/DTD/svg10.dtd">
<svg xmlns="http://www.w3.org/2000/svg" version="1.0" width="800.000000pt" height="800.000000pt" viewBox="0 0 800.000000 800.000000" preserveAspectRatio="xMidYMid meet">
<metadata>
Created by potrace 1.16, written by Peter Selinger 2001-2019
<meta name="Producer" content="Online-Convert"/></metadata>
<g transform="translate(0.000000,800.000000) scale(0.100000,-0.100000)" fill="#000000" stroke="none">
<path d="M237 7989 c-94 -22 -179 -96 -213 -185 -19 -48 -19 -135 -19 -3804 0 -3677 0 -3756 19 -3805 25 -65 94 -137 159 -166 l52 -24 3765 0 3765 0 52 24 c65 29 134 101 159 166 19 49 19 128 19 3805 0 3677 0 3756 -19 3805 -25 65 -94 137 -159 166 l-52 24 -3745 2 c-2161 0 -3761 -3 -3783 -8z m4213 -3919 l0 -330 -510 0 -510 0 0 -1460 0 -1460 -410 0 -410 0 0 1460 0 1460 -505 0 -505 0 0 330 0 330 1425 0 1425 0 0 -330z m2179 306 c127 -19 249 -48 359 -83 l82 -27 0 -373 c0 -205 -3 -373 -6 -373 -3 0 -36 18 -74 40 -128 75 -300 137 -475 173 -157 31 -453 31 -567 -1 -116 -32 -187 -69 -250 -132 -67 -67 -94 -139 -85 -222 22 -184 185 -309 667 -513 657 -278 911 -553 945 -1025 14 -181 -26 -403 -96 -543 -85 -169 -228 -313 -401 -406 -239 -129 -544 -191 -938 -191 -380 0 -686 53 -947 162 l-73 31 0 403 0 404 87 -65 c166 -122 387 -219 607 -267 84 -18 134 -22 296 -22 213 -1 274 9 397 64 241 109 279 363 81 546 -104 96 -230 164 -573 311 -331 141 -504 247 -648 397 -125 129 -195 257 -239 432 -17 71 -22 119 -22 239 -1 238 39 382 155 555 178 265 494 432 939 494 141 20 629 15 779 -8z"/>
</g>
</svg>
